PathFileType	4	(X/Y/Z)	/Users/itak/Documents/Research/Walk-IL/dataset/trc/00581_00009.trc
DataRate	CameraRate	NumFrames	NumMarkers	Units	OrigDataRate	OrigDataStartFrame	OrigNumFrames
100.000000	100.000000	4	53	mm	100.000000	65	525
Frame#	Time	RPSI			LPSI			L3			STRN			T10			C7			CLAV			RBAK			LBAK			LSHO			LUPA			LAEL			LAOL			LWTS			LWPS			LFRA			LIFD			LHPS			LHTS			RSHO			RUPA			RAEL			RAOL			RWTS			RWPS			RFRA			RIFD			RHPS			RBHD			RFHD			LBHD			LHIP			RHIP			RASI			LASI			LKNE			LTHI			LANK			LTIP			LTOE			LMT1			LMT5			LHEE			RKNE			RTHI			RANK			RTIP			RTOE			RMT1			RMT5			RHEE			RHTS			LFHD			
		X1	Y1	Z1	X2	Y2	Z2	X3	Y3	Z3	X4	Y4	Z4	X5	Y5	Z5	X6	Y6	Z6	X7	Y7	Z7	X8	Y8	Z8	X9	Y9	Z9	X10	Y10	Z10	X11	Y11	Z11	X12	Y12	Z12	X13	Y13	Z13	X14	Y14	Z14	X15	Y15	Z15	X16	Y16	Z16	X17	Y17	Z17	X18	Y18	Z18	X19	Y19	Z19	X20	Y20	Z20	X21	Y21	Z21	X22	Y22	Z22	X23	Y23	Z23	X24	Y24	Z24	X25	Y25	Z25	X26	Y26	Z26	X27	Y27	Z27	X28	Y28	Z28	X29	Y29	Z29	X30	Y30	Z30	X31	Y31	Z31	X32	Y32	Z32	X33	Y33	Z33	X34	Y34	Z34	X35	Y35	Z35	X36	Y36	Z36	X37	Y37	Z37	X38	Y38	Z38	X39	Y39	Z39	X40	Y40	Z40	X41	Y41	Z41	X42	Y42	Z42	X43	Y43	Z43	X44	Y44	Z44	X45	Y45	Z45	X46	Y46	Z46	X47	Y47	Z47	X48	Y48	Z48	X49	Y49	Z49	X50	Y50	Z50	X51	Y51	Z51	X52	Y52	Z52	X53	Y53	Z53	

66	0.65	-1284.870361328125	1018.681457519531	-293.8583984375	-1215.9697265625	1025.185302734375	-408.6002502441406	-1243.831298828125	1101.041870117188	-350.542724609375	-1042.218383789062	1294.015502929688	-238.4927978515625	-1255.470092773438	1229.208618164062	-355.1585388183594	-1226.756958007812	1503.0986328125	-326.0198364257812	-1064.183471679688	1405.322875976562	-249.4913940429688	-1323.3466796875	1373.253540039062	-286.6734619140625	-1211.074829101562	1450.798217773438	-422.3619079589844	-1087.509155273438	1476.652221679688	-449.6455993652344	-1058.720947265625	1348.669067382812	-521.7522583007812	-1028.416870117188	1126.80078125	-526.5204467773438	-1129.789428710938	1121.269653320312	-527.4329833984375	-989.0291748046875	878.0112915039062	-443.2649230957031	-986.9125366210938	859.9282836914062	-528.9616088867188	-1007.620788574219	1040.1533203125	-521.5216064453125	-1009.178833007812	710.7297973632812	-458.047607421875	-988.3463134765625	799.165771484375	-521.4664306640625	-971.0413208007812	798.6624755859375	-455.4521789550781	-1251.573852539062	1464.980712890625	-163.0136566162109	-1299.222290039062	1398.740844726562	-113.8456268310547	-1313.863525390625	1109.952392578125	-68.01476287841797	-1351.60009765625	1091.656372070312	-116.2463531494141	-1173.4501953125	890.86669921875	-41.64151382446289	-1244.448974609375	870.7847900390625	-2.212577819824219	-1307.327880859375	1055.169555664062	-55.80064010620117	-1170.198852539062	718.1475219726562	-35.3114128112793	-1229.388793945312	796.8795776367188	4.661252498626709	-1195.091918945312	1685.791015625	-232.8086395263672	-1077.474853515625	1712.1875	-161.3303070068359	-1095.468994140625	1685.484741210938	-364.8719787597656	-1044.636474609375	939.58740234375	-459.7413635253906	-1248.746704101562	932.2197265625	-132.7216796875	-1141.173583984375	961.3595581054688	-135.7310333251953	-1001.48291015625	959.5398559570312	-374.2833251953125	-1069.943237304688	492.6554565429688	-415.7757568359375	-1044.982299804688	657.5390014648438	-442.4757385253906	-1142.248901367188	33.03190994262695	-453.7373046875	-1124.093017578125	251.6187591552734	-453.2127380371094	-988.3958129882812	36.31301879882812	-298.7674865722656	-1070.482055664062	37.5227165222168	-304.7740783691406	-1029.040283203125	34.53149032592773	-404.3589782714844	-1228.91845703125	28.38093566894531	-442.4581604003906	-1224.26171875	490.7255859375	-192.7585144042969	-1218.6474609375	776.1514892578125	-125.810791015625	-1287.559326171875	34.20570373535156	-276.6797790527344	-1222.566040039062	350.3432006835938	-213.5836639404297	-1078.083862304688	36.79466247558594	-189.8932647705078	-1109.283325195312	37.30818939208984	-260.0033569335938	-1185.538818359375	37.34173965454102	-188.9438781738281	-1301.08935546875	25.88665580749512	-352.542236328125	-1156.79736328125	799.2279663085938	-13.70697689056396	-993.6181030273438	1713.629150390625	-281.716064453125	
67	0.66	-1285.030517578125	1018.806762695312	-294.0518188476562	-1216.17431640625	1025.327392578125	-408.81103515625	-1243.939331054688	1101.122314453125	-350.6661987304688	-1042.29248046875	1293.96142578125	-238.5001831054688	-1255.482055664062	1229.293090820312	-355.3310852050781	-1226.725341796875	1503.14794921875	-326.041259765625	-1064.268432617188	1405.26416015625	-249.4532775878906	-1323.389526367188	1373.317504882812	-286.7339172363281	-1211.004760742188	1450.870727539062	-422.3853149414062	-1087.430053710938	1476.68701171875	-449.592041015625	-1058.381713867188	1348.639038085938	-521.5185546875	-1027.279052734375	1126.825317382812	-525.829833984375	-1128.706420898438	1120.920166015625	-526.968505859375	-986.8724975585938	878.6441040039062	-441.4904479980469	-984.6250610351562	860.08935546875	-527.0399169921875	-1006.169006347656	1040.2783203125	-520.4364013671875	-1006.248352050781	711.1708984375	-455.2790832519531	-985.6826171875	799.5612182617188	-519.2273559570312	-968.346435546875	799.4390258789062	-453.2644653320312	-1251.610961914062	1465.009887695312	-163.0503540039062	-1299.26904296875	1398.750732421875	-113.9065170288086	-1313.869750976562	1109.978515625	-68.03118896484375	-1351.607421875	1091.658813476562	-116.2463150024414	-1173.260864257812	890.9786376953125	-41.67071914672852	-1244.267211914062	870.9284057617188	-2.119262218475342	-1307.298461914062	1055.203735351562	-55.79343795776367	-1169.821411132812	718.3109741210938	-35.30390548706055	-1229.117431640625	797.01416015625	4.679102420806885	-1194.918334960938	1685.8486328125	-232.6697235107422	-1077.351318359375	1712.09033203125	-161.1588439941406	-1095.24658203125	1685.54296875	-364.7098388671875	-1044.842163085938	939.4541015625	-459.91015625	-1248.944702148438	932.2197875976562	-132.9127960205078	-1141.413330078125	961.3338623046875	-135.9037322998047	-1001.613891601562	959.5233764648438	-374.3917541503906	-1070.093627929688	492.6173706054688	-415.8422546386719	-1045.1630859375	657.517822265625	-442.6651000976562	-1142.2451171875	32.97787094116211	-453.7760925292969	-1124.138793945312	251.5757751464844	-453.257080078125	-988.4074096679688	36.32022094726562	-298.7706909179688	-1070.486694335938	37.52178573608398	-304.7789306640625	-1029.046875	34.53367614746094	-404.3594970703125	-1228.918579101562	28.3519287109375	-442.459228515625	-1224.395874023438	490.7267456054688	-192.9105072021484	-1218.959106445312	776.17578125	-126.0596694946289	-1287.568603515625	34.1993522644043	-276.7106018066406	-1222.672119140625	350.352783203125	-213.6482849121094	-1078.091552734375	36.80979537963867	-189.9208374023438	-1109.287963867188	37.30594635009766	-260.0203552246094	-1185.525634765625	37.35184860229492	-188.9756317138672	-1301.093505859375	25.82357788085938	-352.5952453613281	-1156.473266601562	799.4052124023438	-13.71450901031494	-993.4428100585938	1713.513671875	-281.5059204101562	
68	0.67	-1285.186279296875	1018.915893554688	-294.2483215332031	-1216.3779296875	1025.468872070312	-409.0162353515625	-1244.041625976562	1101.211303710938	-350.7923889160156	-1042.357055664062	1293.908325195312	-238.5163879394531	-1255.484008789062	1229.370483398438	-355.5057373046875	-1226.688354492188	1503.194702148438	-326.0630493164062	-1064.34130859375	1405.208984375	-249.4167022705078	-1323.427612304688	1373.376342773438	-286.7960510253906	-1210.926879882812	1450.9453125	-422.4087829589844	-1087.334228515625	1476.735229492188	-449.5289916992188	-1058.017944335938	1348.633666992188	-521.2901611328125	-1026.099731445312	1126.866577148438	-525.1250610351562	-1127.561157226562	1120.563110351562	-526.5020751953125	-984.6563720703125	879.3277587890625	-439.6634216308594	-982.2256469726562	860.252197265625	-525.0183715820312	-1004.651611328125	1040.425170898438	-519.3223876953125	-1003.054748535156	711.717529296875	-452.3908996582031	-982.96484375	799.97607421875	-516.8643188476562	-965.5265502929688	800.3026123046875	-450.98291015625	-1251.645141601562	1465.029541015625	-163.0885009765625	-1299.317504882812	1398.745361328125	-113.97509765625	-1313.88037109375	1109.995849609375	-68.05424499511719	-1351.609375	1091.645629882812	-116.2611923217773	-1173.062622070312	891.0912475585938	-41.68796539306641	-1244.078125	871.0690307617188	-2.030181169509888	-1307.266723632812	1055.224731445312	-55.79974746704102	-1169.419311523438	718.4674682617188	-35.28859710693359	-1228.840454101562	797.1414794921875	4.711845874786377	-1194.723388671875	1685.907592773438	-232.5309600830078	-1077.220458984375	1711.993041992188	-160.9700927734375	-1095.001831054688	1685.595947265625	-364.5318603515625	-1045.033325195312	939.3369140625	-460.0874328613281	-1249.072509765625	932.2273559570312	-133.0815887451172	-1141.640747070312	961.3145751953125	-136.0443115234375	-1001.766418457031	959.4966430664062	-374.5311584472656	-1070.256591796875	492.5697631835938	-415.8904418945312	-1045.306762695312	657.5223999023438	-442.8589172363281	-1142.246704101562	32.91407775878906	-453.8189086914062	-1124.187133789062	251.5260162353516	-453.307373046875	-988.419189453125	36.32899475097656	-298.7736206054688	-1070.4951171875	37.51567077636719	-304.8039855957031	-1029.051879882812	34.53417587280273	-404.3614196777344	-1228.931518554688	28.3167839050293	-442.4619445800781	-1224.487548828125	490.7221374511719	-193.0694427490234	-1219.237548828125	776.2055053710938	-126.2896499633789	-1287.576293945312	34.19675064086914	-276.7386169433594	-1222.75	350.3590698242188	-213.7084503173828	-1078.099487304688	36.82574462890625	-189.9489440917969	-1109.290161132812	37.30145263671875	-260.0404357910156	-1185.51025390625	37.359130859375	-189.0146331787109	-1301.10107421875	25.76363372802734	-352.6428833007812	-1156.1162109375	799.5799560546875	-13.73755645751953	-993.2711791992188	1713.398681640625	-281.2811279296875	
69	0.68	-1285.3369140625	1019.008850097656	-294.4449157714844	-1216.576293945312	1025.606201171875	-409.2123718261719	-1244.137573242188	1101.307739257812	-350.9195861816406	-1042.412475585938	1293.856079101562	-238.5409393310547	-1255.477172851562	1229.442260742188	-355.6808471679688	-1226.644775390625	1503.239990234375	-326.0845336914062	-1064.399536132812	1405.157470703125	-249.3839263916016	-1323.459838867188	1373.431396484375	-286.8583374023438	-1210.8447265625	1451.020141601562	-422.4314575195312	-1087.22119140625	1476.795776367188	-449.4552307128906	-1057.629272460938	1348.651611328125	-521.0638427734375	-1024.883666992188	1126.931884765625	-524.4024658203125	-1126.345336914062	1120.209228515625	-526.0453491210938	-982.3916625976562	880.07275390625	-437.7718200683594	-979.7125854492188	860.4396362304688	-522.9024658203125	-1003.071411132812	1040.599609375	-518.18017578125	-999.6399536132812	712.3713989257812	-449.396728515625	-980.200927734375	800.3807373046875	-514.37548828125	-962.623046875	801.2297973632812	-448.5940551757812	-1251.674194335938	1465.039916992188	-163.1264343261719	-1299.36572265625	1398.726928710938	-114.0495452880859	-1313.895751953125	1110.004760742188	-68.08448028564453	-1351.606323242188	1091.618286132812	-116.2904434204102	-1172.856811523438	891.2100830078125	-41.69187164306641	-1243.881225585938	871.2020263671875	-1.955559968948364	-1307.234130859375	1055.233154296875	-55.81974792480469	-1169.000610351562	718.617919921875	-35.26248931884766	-1228.560913085938	797.260009765625	4.76148796081543	-1194.509399414062	1685.96875	-232.3908386230469	-1077.073608398438	1711.894287109375	-160.7619323730469	-1094.730590820312	1685.6435546875	-364.3374328613281	-1045.172241210938	939.2626953125	-460.268798828125	-1249.150634765625	932.2395629882812	-133.2380523681641	-1141.85107421875	961.300048828125	-136.1608276367188	-1001.949157714844	959.4597778320312	-374.7097473144531	-1070.422119140625	492.516845703125	-415.93212890625	-1045.425415039062	657.5400390625	-443.0538330078125	-1142.2529296875	32.84071731567383	-453.8639831542969	-1124.236450195312	251.473388671875	-453.3629150390625	-988.4301147460938	36.33929443359375	-298.7766418457031	-1070.507446289062	37.50489044189453	-304.8478698730469	-1029.0546875	34.53301620483398	-404.3647155761719	-1228.9580078125	28.27336692810059	-442.4668579101562	-1224.53955078125	490.7141418457031	-193.2277984619141	-1219.479858398438	776.2399291992188	-126.4955368041992	-1287.581420898438	34.1983642578125	-276.76416015625	-1222.796630859375	350.3611755371094	-213.7643890380859	-1078.1064453125	36.84287643432617	-189.9770660400391	-1109.28955078125	37.29469680786133	-260.0630798339844	-1185.4931640625	37.36398696899414	-189.0595550537109	-1301.1103515625	25.71082305908203	-352.6832275390625	-1155.739501953125	799.7548217773438	-13.76575565338135	-993.0914306640625	1713.28125	-281.035400390625	
